<?xml version="1.0" encoding="iso-8859-1"?>
<!-- Generator: Adobe Illustrator 16.0.0, SVG Export Plug-In . SVG Version: 6.00 Build 0)  -->
<!DOCTYPE svg PUBLIC "-//W3C//DTD SVG 1.1//EN" "http://www.w3.org/Graphics/SVG/1.1/DTD/svg11.dtd">
<svg version="1.1" id="Capa_1" xmlns="http://www.w3.org/2000/svg" xmlns:xlink="http://www.w3.org/1999/xlink" x="0px" y="0px"
	 width="610.413px" height="610.412px" viewBox="0 0 610.413 610.412" style="enable-background:new 0 0 610.413 610.412;"
	 xml:space="preserve">
<g>
	<g>
		<path d="M519.992,301.816c0-18.451-11.408-34.215-27.55-40.688V98.886l22.396-41.812c6.288-11.81,6.288-26.302-0.139-38.078
			C508.273,7.229,496.54,0,483.759,0H126.16c-12.713,0-24.513,7.229-30.906,19c-6.388,11.771-6.459,26.264-0.105,38.078
			l22.821,42.61v161.439c-16.137,6.474-27.55,22.233-27.55,40.688c0,18.451,11.408,34.215,27.55,40.688v168.214l-22.821,42.615
			c-6.354,11.81-6.287,26.302,0.105,38.078c6.393,11.771,18.192,19,30.906,19h357.599c12.78,0,24.514-7.229,30.939-19
			c6.427-11.771,6.427-26.264,0.139-38.078l-22.396-41.812V342.505C508.583,336.031,519.992,320.268,519.992,301.816z
			 M459.83,342.505v108.128l-77.901-145.431l77.901-145.431v101.357c-16.137,6.474-27.55,22.233-27.55,40.688
			C432.285,320.268,443.693,336.031,459.83,342.505z M340.719,305.202l119.526,223.15H149.674l119.526-223.15L148.838,80.483
			h312.249L340.719,305.202z M150.583,261.128v-100.54l77.442,144.614L150.583,449.82V342.505
			c16.137-6.474,27.549-22.237,27.549-40.688C178.132,283.366,166.725,267.602,150.583,261.128z"/>
		<polygon points="252.189,170.619 304.959,262.969 357.731,170.619 		"/>
		<polygon points="212.055,497.298 397.898,497.298 364.654,439.129 245.294,439.129 		"/>
	</g>
</g>
<g>
</g>
<g>
</g>
<g>
</g>
<g>
</g>
<g>
</g>
<g>
</g>
<g>
</g>
<g>
</g>
<g>
</g>
<g>
</g>
<g>
</g>
<g>
</g>
<g>
</g>
<g>
</g>
<g>
</g>
</svg>
