<svg viewBox="0 -21 511.99909 511" xmlns="http://www.w3.org/2000/svg"><path d="m206.726562 187.445312c3.5625 7.734376 12.738282 11.113282 20.46875 7.535157 18.175782-8.410157 39.414063-8.417969 57.609376 0 7.703124 3.5625 16.894531.226562 20.472656-7.535157l65.867187-142.917968c3.558594-7.722656.1875-16.875-7.535156-20.441406-68.03125-31.425782-147.09375-31.46875-215.214844 0-7.722656 3.566406-11.09375 12.714843-7.535156 20.441406zm0 0"/><path d="m497.996094 264.300781-156.671875-14.40625c-8.523438-.777343-15.996094 5.503907-16.761719 13.953125-1.820312 20.042969-12.328125 38.230469-28.828125 49.898438-6.949219 4.914062-8.597656 14.53125-3.6875 21.484375l90.816406 128.476562c4.925781 6.964844 14.558594 8.59375 21.496094 3.683594 61.570313-43.597656 100.78125-111.515625 107.574219-186.347656.773437-8.472657-5.464844-15.964844-13.9375-16.742188zm0 0"/><path d="m216.265625 313.746094c-16.5-11.667969-27.003906-29.855469-28.828125-49.898438-.769531-8.480468-8.277344-14.730468-16.761719-13.953125l-156.671875 14.40625c-8.472656.777344-14.710937 8.269531-13.941406 16.742188 6.796875 74.828125 46.007812 142.75 107.578125 186.34375 6.972656 4.9375 16.59375 3.25 21.492187-3.679688l90.820313-128.480469c4.910156-6.949218 3.261719-16.566406-3.6875-21.480468zm0 0"/><path d="m306.695312 257.527344c0-27.953125-22.742187-50.695313-50.695312-50.695313s-50.691406 22.742188-50.691406 50.695313c0 27.949218 22.738281 50.691406 50.691406 50.691406s50.695312-22.742188 50.695312-50.691406zm0 0"/></svg>